<svg xmlns="http://www.w3.org/2000/svg" viewBox="0 0 600 150" width="600" height="150" fill="none">
  <!-- BookOpen icon scaled ~4x (original 22px → ~88px), vertically centred -->
  <g transform="translate(8, 31) scale(3.8)" stroke="#4f46e5" stroke-width="2" stroke-linecap="round" stroke-linejoin="round">
    <!-- Left page -->
    <path d="M2 3C2 3 6 2 11 2C14 2 16.5 3 18 4V20C16.5 19 14 18 11 18C6 18 2 19 2 19V3Z"/>
    <!-- Right page -->
    <path d="M18 4C19.5 3 22 2 25 2C28 2 30 3 30 3V19C30 19 27.5 18 25 18C22 18 19.5 19 18 20V4Z"/>
    <!-- Spine -->
    <line x1="16" y1="4" x2="16" y2="20"/>
  </g>

  <!-- "Gronthee" text -->
  <text
    x="130"
    y="105"
    font-family="system-ui, -apple-system, sans-serif"
    font-size="72"
    font-weight="600"
    fill="#4f46e5"
    letter-spacing="-1"
  >Gronthee</text>
</svg>
